# xmcd CD database file
#
# Track frame offsets:
#	150
#	16086
#	26963
#	42137
#	58158
#	68972
#	84122
#	94397
#	106242
#	117302
#	130048
#	139823
#	150523
#	159875
#	172696
#	184503
#
# Disc length: 2655 seconds
#
# Revision: 0
# Processed by: cddbd v1.5.2PL0 Copyright (c) Steve Scherf et al.
# Submitted via: CDex 1.51
#
DISCID=c00a5d10
DTITLE=Various Artist - Yéyé French Pop 60's [CD3)
DYEAR=2009
DGENRE=60's
TTITLE0=Serge Gainsbourg - Initials B.B.
TTITLE1=Anna Karina - Roller Girl
TTITLE2=Nino Ferrer - Mao et Moa
TTITLE3=Elsa [Darde] - C'est bizarre
TTITLE4=Ronnie Bird - Le pivert
TTITLE5=France Gall - Baby pop
TTITLE6=Jacqueline Taïeb - 7 heures du matin
TTITLE7=Yper-Sound - Psyché rock
TTITLE8=David Alexandre Winter - Qu'est-ce que j'ai dansé!
TTITLE9=Claude François - Hip Hip Hip Hurrah
TTITLE10=Nicoletta - Le grand amour
TTITLE11=Claude Channes - L'amour pas la guerre
TTITLE12=Annie Philippe - Pour la gloire
TTITLE13=Nino Ferrer - Le roi d'Angleterre
TTITLE14=Serge Gainsbourg - L'anamour (version 45t)
TTITLE15=Valérie Lagrange - Ce que je suis
EXTD=YEAR: 2009
EXTT0=
EXTT1=
EXTT2=
EXTT3=
EXTT4=
EXTT5=
EXTT6=
EXTT7=
EXTT8=
EXTT9=
EXTT10=
EXTT11=
EXTT12=
EXTT13=
EXTT14=
EXTT15=
PLAYORDER=
